<mxfile host="app.diagrams.net" modified="2022-07-26T03:26:03.720Z" agent="5.0 (Windows NT 10.0; Win64; x64) AppleWebKit/537.36 (KHTML, like Gecko) Chrome/103.0.0.0 Safari/537.36" etag="NqVZg3415oqtUqf9cEoI" version="20.1.4" type="github">
  <diagram id="L5azC133YoIZjKql6Xwu" name="Page-1">
    <mxGraphModel dx="1422" dy="706" grid="1" gridSize="10" guides="1" tooltips="1" connect="1" arrows="1" fold="1" page="1" pageScale="1" pageWidth="1169" pageHeight="827" math="0" shadow="0">
      <root>
        <mxCell id="0" />
        <mxCell id="1" parent="0" />
        <mxCell id="fBA-snle_CtwRjqkzqtg-31" value="" style="rounded=0;whiteSpace=wrap;html=1;labelBackgroundColor=none;fontColor=#FFFFFF;strokeColor=#68B92E;fillColor=none;dashed=1;strokeWidth=3;" parent="1" vertex="1">
          <mxGeometry x="200" y="120" width="760" height="531.5" as="geometry" />
        </mxCell>
        <mxCell id="fBA-snle_CtwRjqkzqtg-28" value="" style="rounded=0;whiteSpace=wrap;html=1;labelBackgroundColor=none;fontColor=#FFFFFF;strokeColor=#68B92E;fillColor=none;strokeWidth=2;" parent="1" vertex="1">
          <mxGeometry x="349.01" y="170" width="354.99" height="70" as="geometry" />
        </mxCell>
        <mxCell id="fBA-snle_CtwRjqkzqtg-3" value="&lt;font style=&quot;font-size: 15px;&quot;&gt;Webapi&lt;/font&gt;" style="ellipse;whiteSpace=wrap;html=1;fillColor=#68B92E;strokeColor=#68B92E;fontColor=#FFFFFF;" parent="1" vertex="1">
          <mxGeometry x="354.01" y="184" width="100" height="50" as="geometry" />
        </mxCell>
        <mxCell id="fBA-snle_CtwRjqkzqtg-7" value="" style="endArrow=classic;html=1;rounded=0;exitX=1;exitY=0.5;exitDx=0;exitDy=0;entryX=0;entryY=0.5;entryDx=0;entryDy=0;strokeColor=#68B92E;" parent="1" source="fBA-snle_CtwRjqkzqtg-18" target="fBA-snle_CtwRjqkzqtg-19" edge="1">
          <mxGeometry width="50" height="50" relative="1" as="geometry">
            <mxPoint x="373.5" y="319" as="sourcePoint" />
            <mxPoint x="546.2500000000007" y="319" as="targetPoint" />
          </mxGeometry>
        </mxCell>
        <mxCell id="fBA-snle_CtwRjqkzqtg-8" value="" style="endArrow=classic;html=1;rounded=0;exitX=1;exitY=0.5;exitDx=0;exitDy=0;entryX=0;entryY=0.5;entryDx=0;entryDy=0;strokeColor=#68B92E;" parent="1" source="fBA-snle_CtwRjqkzqtg-19" target="fBA-snle_CtwRjqkzqtg-22" edge="1">
          <mxGeometry width="50" height="50" relative="1" as="geometry">
            <mxPoint x="636.7499999999993" y="319" as="sourcePoint" />
            <mxPoint x="836.25" y="319" as="targetPoint" />
          </mxGeometry>
        </mxCell>
        <mxCell id="fBA-snle_CtwRjqkzqtg-10" value="ADS" style="shape=image;verticalLabelPosition=bottom;labelBackgroundColor=default;verticalAlign=top;aspect=fixed;imageAspect=0;image=data:image/png,iVBORw0KGgoAAAANSUhEUgAAAEMAAABFCAYAAAARk1tuAAAAAXNSR0IArs4c6QAAAARnQU1BAACxjwv8YQUAAAAJcEhZcwAADsMAAA7DAcdvqGQAAApdSURBVHhe5ZwJVFTXGcfvW2YfVmEE3FBCi0GtsdW4a4tmEYtJbLUmcU3TpNgTezxaNTWaGKNGbE+qia02ai1pgomaVKMYjQY02lZtVFxotKAoyMiAMDrM8tZ+d+YOBZmBWUBm5HfO88373zfOzP9+97v3vnd5FLpPSJKUCbvusCVxsqO3IDj60BSTyNLKeIZm1ILIV/OyvZpGTJma1V+B8ypguwnbSZqmS2Df7rSbGfDjVRRFZTkk+08Ymfkxyyg0Vv6uaHaYUK3DyJjtJlTnqHJuDtGKolUGFAVbtCoeRasNKEaVIEQquzA0zVD1vLlYy0Z+AP/tHjDmgusT2p42NwNMmCHI/GQGMZnwQ5jLt08LZ6sOs0WmQlRjw5XtH/3iRqEBhrFoQPwYMCse2QRLiZrRfQhFH4Exxa6z2oY2M0OW5aeg5tdqFRGpl6qP82eqjiiKTAXojqOanBE8340dAqaMRY8YMrgYTYISPjMH5DfBlLuuM4IjaDMgEn4AYbxOr4we882tQ9znJRuVlZZSUtp+jO05DWX2eVlUMRob5J2lYMgfSFHABGwG1EqCQ7CtVLGaF0rrzgmfl/yRLa75Bym9P6gYLZqQ8gv0WPJsZBesl8GYV8GUXaTYbwIyA6JhmCjzOy1cXdzekveUJyo+IyUdQ1ddMprQ5yU0JHECrqQ1YMgSUuQXfpsBH/ZTSRLzLtWcEN8vWqhwiDZS0vGM6PYMej59OXII9o/VCs1UIvuMX2ZARMyH7vJ3hTd2oLziVUQNLdLjRqDZ/dfINEX9W83osyBKKklRq/hshpW3vKdhddl/v7IeHbi6haihSZL+IfTCgLVinDrJqGDUT4Mhp0hRi/hkhp23boZE+eJfLixF/7q5l6ihjZaNQHMGrEFpsUPrYaQ7GAxpdUzSqhnQNOZC03h3a9FidMqYT9TwYeGQvwpJEanFENUDiOQVmuw9Akb8CBuxv3RTWBqB2X5hKSuIXD+7aPsbkbzi1QwwIpGT7Hlnbh3m9/53I1HDjyrrdZR7cRmlotXPwm/6DZE94t0MWci9bbsZC84qiBS24HnRp5ffQRDlb4MhWURuhsecAW9YJsnS6zknp1Nldy4S1Tsbx58lrzqW7EMDySvPzOi3Ag1JyKxhaDYJjOGI3EAzM8CIWEkWb+4r3aTKL91MVM+Eign34s0UnSIavTXqgKxk1Mugd1lJ5AaamQHjiXcg4cxdcmw8K0o8UZvjNqK12rif+PKdMlNeRk/0/rmdpRU4OmqJ7KRJzoCo6AFd0Lwvrm1p0Yhw5uDVbcjGW1QwrWiWTJuYwYn2127bjNzhslyiPHjwkgMdKttGyUheBJXfjchOGswAp9LwKPPA1T8rieQ3OEwb5xF/j1vDfX7jLRAOXduOau23ZHjZJDoaR8asWrvx7rHyneTwwebgta00REc2BEHD0KEhgXKCo/ho+Y60nd+uI0rLuGsl3BKomxh1V7Rq9EHcIiZBz7IHa87IgLaTqmCUaRerj+PDTgE0E3TVXIQsXO0UIjU0kwkOwcbf78t2Hc3F6q+RglE9QQ5dzYQTuS+LTAWj3j+3wK/kGWgCa298bbq9otLR4kc/xE1lCL7mQcMLvYJWZJw3Ffrdi4RSvsDg7+PPdyozX0S3bZUSvHwSH1OQLybDSGznwoKxuP1grVMxre9v0bCkSWeUrHoQzhlJNsFi64xGYPAUH8D3gJ2R8Va1rXzusq8nRmHBH0IxZ/jbdAcnPIlm9V8lMTTD4MhIvG2vDHjUGWr4W0FmrhrRFE1DUBhwZOSfNuaP3Hp+iZ6U+0S4D7rcJOh6o+UjPsM9ykAcGQkwAGFdRZ0PvESCkOhsJnUOE560BA2umcZh6u+xL7jfE8h7PQGdB56tS9CjJmAz4u9wNbivDXna4sd7wsrfEaCZOHNGxa5v18Ucvv6BhpT5hPuLhXvOwKzPOCWztGImDeFRGakyeLww3BnQKaJgfqIEG6hKPByvjNMmWUlZpyNKFefcgw9GnDOMeHGZv4RS8wiGSGIGUIlzxgroTX756tHxDaqvtFdCCwZ/K+nRxIloevoKgWVYBTYjG7qWnF8fGaol5Z2K8cmz8O2DKjWr7YqbyXUVq9HGqhNdpZ2MJH0K/Cs7F91SkDgYiI76vP+sUh0r/wRrfhMKzSXQHJYztlCEHmUJTdM5zi4VzNh9qebE4+9+k+1XUwnFnIHx1ZjUmO+j+YO34p6kP5hxwW3Gi5Is/mnekaG0r3fSHoRB11Op89CYHlPKNYqIHvgY5wxMPkOzNF4c1pnoFzdKdIj2L8ihywwIkXIIlX8OjM9ok2XH4YBB2wt1i0hlYNCVR6Qmd9Ty8YL1YMBh2jiP+HvcGu7zG2+BMqjrOCRIfD0Mw78k0v/NAHGzhtVr8NLjUKWt8pOa1aHHkudIDMX+nkhOmkzQIJGudIjWhYsKM5RcKyt/3bUSjgk066FfoYxe021KRm2AILAQuUkzwbwNJzhCOTqCBc9F4PfJnMytbWwEpokZkEjvUoheDSdLEcpYoj5Y4IqGXFGrZyPfIFIDza5jOEeksnTjSFlu4q7LTZpUM4JJYO2Jt2YSr+2OVozch3/jK1DxG4jcwL3NBCdSkULUmnHJM6EfHknU8KGlfDE1bQkPOfG6JyMwXq9wQTLNtXB1P1t78jm2OoC/LQs1nvnOfJihzsRRMRzM8LjcoFlkuIEImQ3T2mKY6xMlfBne7Wm3EXO8GYFpyQyBpZXPpUQ/Ysc3Z8OVPtHfQ9PTX0c2oX4DGLGNyB7xagYG3nyeoZkZo3tMQT/s+SxRw4dYTSKakf6mVM+Zj2oV+leI7JUWzcBAhHwC4bV8Stoi9HjvOUQNfRL1KSh74AYxWmUw6pRRk4ncIl4T6L1AQl0AxuQU3MhDO4pXEzU0ebjLcDS7/2oZovqMmtHjBWzlpKhFfDYDA4ZMhZHIR0WmQmrr+cX4thwpCR1wssQ5AprGHr0qehKRfcIvMzBgyAhe4nYbLaVdtpxfxFRZy0hJx5OZ8hKamJKNk+V6yBHziOwzfpuBAUN6SbL4MUXRg/eXbqL2l26Gbqvjbtf27TIM//WzkBIzkPU2uvSFgMxwAx+8WJSEN8ycSbm/ZDM6XrGblNwfEnR9nH/xjFff2Pj6wzAuwhd2ffpLRU8EZQYGoqQr7F6D5Dq3tO4s2gdRcqmdF9fimee4XtOd9zzq+TulWjZiAZjwKSkOmKDNcAOmDILdMjBlEuQT8azpK6aoqsC5Crct0CuiyaMjXJsg82a7aF0VqYxZS04JmjYzww2YMhp2WTAhmqZmdUnVtnJ0DkzBj4+ouHsZatLsOrEVWFqBekY+jHpEpDlNwN0lNEtk4esKwJhcMB1yVtPrEcHS5mY0BowZDLssm2B5XquISMYaJ9jlOq6KMuOnqpCnq7ierBLverKK2oCilPFypKqL87tBTuLAwK8ilLHb4RA/WaUe6+1Bu5rRGDCmL+ycz9yBrZuFq02D4W13Ba0yUBTSQ+9kdAg2k4rVXVEzWvwADvy8nQqo/dOwifC6nUHofy2Bd0ePUISmAAAAAElFTkSuQmCC;fontColor=#68B92E;fontStyle=1;fontSize=14;" parent="1" vertex="1">
          <mxGeometry x="549.13" y="708" width="67" height="69" as="geometry" />
        </mxCell>
        <mxCell id="fBA-snle_CtwRjqkzqtg-11" value="ADS" style="shape=image;verticalLabelPosition=bottom;labelBackgroundColor=default;verticalAlign=top;aspect=fixed;imageAspect=0;image=data:image/png,iVBORw0KGgoAAAANSUhEUgAAAEMAAABFCAYAAAARk1tuAAAAAXNSR0IArs4c6QAAAARnQU1BAACxjwv8YQUAAAAJcEhZcwAADsMAAA7DAcdvqGQAAApdSURBVHhe5ZwJVFTXGcfvW2YfVmEE3FBCi0GtsdW4a4tmEYtJbLUmcU3TpNgTezxaNTWaGKNGbE+qia02ai1pgomaVKMYjQY02lZtVFxotKAoyMiAMDrM8tZ+d+YOBZmBWUBm5HfO88373zfOzP9+97v3vnd5FLpPSJKUCbvusCVxsqO3IDj60BSTyNLKeIZm1ILIV/OyvZpGTJma1V+B8ypguwnbSZqmS2Df7rSbGfDjVRRFZTkk+08Ymfkxyyg0Vv6uaHaYUK3DyJjtJlTnqHJuDtGKolUGFAVbtCoeRasNKEaVIEQquzA0zVD1vLlYy0Z+AP/tHjDmgusT2p42NwNMmCHI/GQGMZnwQ5jLt08LZ6sOs0WmQlRjw5XtH/3iRqEBhrFoQPwYMCse2QRLiZrRfQhFH4Exxa6z2oY2M0OW5aeg5tdqFRGpl6qP82eqjiiKTAXojqOanBE8340dAqaMRY8YMrgYTYISPjMH5DfBlLuuM4IjaDMgEn4AYbxOr4we882tQ9znJRuVlZZSUtp+jO05DWX2eVlUMRob5J2lYMgfSFHABGwG1EqCQ7CtVLGaF0rrzgmfl/yRLa75Bym9P6gYLZqQ8gv0WPJsZBesl8GYV8GUXaTYbwIyA6JhmCjzOy1cXdzekveUJyo+IyUdQ1ddMprQ5yU0JHECrqQ1YMgSUuQXfpsBH/ZTSRLzLtWcEN8vWqhwiDZS0vGM6PYMej59OXII9o/VCs1UIvuMX2ZARMyH7vJ3hTd2oLziVUQNLdLjRqDZ/dfINEX9W83osyBKKklRq/hshpW3vKdhddl/v7IeHbi6haihSZL+IfTCgLVinDrJqGDUT4Mhp0hRi/hkhp23boZE+eJfLixF/7q5l6ihjZaNQHMGrEFpsUPrYaQ7GAxpdUzSqhnQNOZC03h3a9FidMqYT9TwYeGQvwpJEanFENUDiOQVmuw9Akb8CBuxv3RTWBqB2X5hKSuIXD+7aPsbkbzi1QwwIpGT7Hlnbh3m9/53I1HDjyrrdZR7cRmlotXPwm/6DZE94t0MWci9bbsZC84qiBS24HnRp5ffQRDlb4MhWURuhsecAW9YJsnS6zknp1Nldy4S1Tsbx58lrzqW7EMDySvPzOi3Ag1JyKxhaDYJjOGI3EAzM8CIWEkWb+4r3aTKL91MVM+Eign34s0UnSIavTXqgKxk1Mugd1lJ5AaamQHjiXcg4cxdcmw8K0o8UZvjNqK12rif+PKdMlNeRk/0/rmdpRU4OmqJ7KRJzoCo6AFd0Lwvrm1p0Yhw5uDVbcjGW1QwrWiWTJuYwYn2127bjNzhslyiPHjwkgMdKttGyUheBJXfjchOGswAp9LwKPPA1T8rieQ3OEwb5xF/j1vDfX7jLRAOXduOau23ZHjZJDoaR8asWrvx7rHyneTwwebgta00REc2BEHD0KEhgXKCo/ho+Y60nd+uI0rLuGsl3BKomxh1V7Rq9EHcIiZBz7IHa87IgLaTqmCUaRerj+PDTgE0E3TVXIQsXO0UIjU0kwkOwcbf78t2Hc3F6q+RglE9QQ5dzYQTuS+LTAWj3j+3wK/kGWgCa298bbq9otLR4kc/xE1lCL7mQcMLvYJWZJw3Ffrdi4RSvsDg7+PPdyozX0S3bZUSvHwSH1OQLybDSGznwoKxuP1grVMxre9v0bCkSWeUrHoQzhlJNsFi64xGYPAUH8D3gJ2R8Va1rXzusq8nRmHBH0IxZ/jbdAcnPIlm9V8lMTTD4MhIvG2vDHjUGWr4W0FmrhrRFE1DUBhwZOSfNuaP3Hp+iZ6U+0S4D7rcJOh6o+UjPsM9ykAcGQkwAGFdRZ0PvESCkOhsJnUOE560BA2umcZh6u+xL7jfE8h7PQGdB56tS9CjJmAz4u9wNbivDXna4sd7wsrfEaCZOHNGxa5v18Ucvv6BhpT5hPuLhXvOwKzPOCWztGImDeFRGakyeLww3BnQKaJgfqIEG6hKPByvjNMmWUlZpyNKFefcgw9GnDOMeHGZv4RS8wiGSGIGUIlzxgroTX756tHxDaqvtFdCCwZ/K+nRxIloevoKgWVYBTYjG7qWnF8fGaol5Z2K8cmz8O2DKjWr7YqbyXUVq9HGqhNdpZ2MJH0K/Cs7F91SkDgYiI76vP+sUh0r/wRrfhMKzSXQHJYztlCEHmUJTdM5zi4VzNh9qebE4+9+k+1XUwnFnIHx1ZjUmO+j+YO34p6kP5hxwW3Gi5Is/mnekaG0r3fSHoRB11Op89CYHlPKNYqIHvgY5wxMPkOzNF4c1pnoFzdKdIj2L8ihywwIkXIIlX8OjM9ok2XH4YBB2wt1i0hlYNCVR6Qmd9Ty8YL1YMBh2jiP+HvcGu7zG2+BMqjrOCRIfD0Mw78k0v/NAHGzhtVr8NLjUKWt8pOa1aHHkudIDMX+nkhOmkzQIJGudIjWhYsKM5RcKyt/3bUSjgk066FfoYxe021KRm2AILAQuUkzwbwNJzhCOTqCBc9F4PfJnMytbWwEpokZkEjvUoheDSdLEcpYoj5Y4IqGXFGrZyPfIFIDza5jOEeksnTjSFlu4q7LTZpUM4JJYO2Jt2YSr+2OVozch3/jK1DxG4jcwL3NBCdSkULUmnHJM6EfHknU8KGlfDE1bQkPOfG6JyMwXq9wQTLNtXB1P1t78jm2OoC/LQs1nvnOfJihzsRRMRzM8LjcoFlkuIEImQ3T2mKY6xMlfBne7Wm3EXO8GYFpyQyBpZXPpUQ/Ysc3Z8OVPtHfQ9PTX0c2oX4DGLGNyB7xagYG3nyeoZkZo3tMQT/s+SxRw4dYTSKakf6mVM+Zj2oV+leI7JUWzcBAhHwC4bV8Stoi9HjvOUQNfRL1KSh74AYxWmUw6pRRk4ncIl4T6L1AQl0AxuQU3MhDO4pXEzU0ebjLcDS7/2oZovqMmtHjBWzlpKhFfDYDA4ZMhZHIR0WmQmrr+cX4thwpCR1wssQ5AprGHr0qehKRfcIvMzBgyAhe4nYbLaVdtpxfxFRZy0hJx5OZ8hKamJKNk+V6yBHziOwzfpuBAUN6SbL4MUXRg/eXbqL2l26Gbqvjbtf27TIM//WzkBIzkPU2uvSFgMxwAx+8WJSEN8ycSbm/ZDM6XrGblNwfEnR9nH/xjFff2Pj6wzAuwhd2ffpLRU8EZQYGoqQr7F6D5Dq3tO4s2gdRcqmdF9fimee4XtOd9zzq+TulWjZiAZjwKSkOmKDNcAOmDILdMjBlEuQT8azpK6aoqsC5Crct0CuiyaMjXJsg82a7aF0VqYxZS04JmjYzww2YMhp2WTAhmqZmdUnVtnJ0DkzBj4+ouHsZatLsOrEVWFqBekY+jHpEpDlNwN0lNEtk4esKwJhcMB1yVtPrEcHS5mY0BowZDLssm2B5XquISMYaJ9jlOq6KMuOnqpCnq7ierBLverKK2oCilPFypKqL87tBTuLAwK8ilLHb4RA/WaUe6+1Bu5rRGDCmL+ycz9yBrZuFq02D4W13Ba0yUBTSQ+9kdAg2k4rVXVEzWvwADvy8nQqo/dOwifC6nUHofy2Bd0ePUISmAAAAAElFTkSuQmCC;fontColor=#68B92E;fontStyle=1;fontSize=14;" parent="1" vertex="1">
          <mxGeometry x="671.26" y="708" width="67" height="69" as="geometry" />
        </mxCell>
        <mxCell id="fBA-snle_CtwRjqkzqtg-12" value="ADS" style="shape=image;verticalLabelPosition=bottom;labelBackgroundColor=default;verticalAlign=top;aspect=fixed;imageAspect=0;image=data:image/png,iVBORw0KGgoAAAANSUhEUgAAAEMAAABFCAYAAAARk1tuAAAAAXNSR0IArs4c6QAAAARnQU1BAACxjwv8YQUAAAAJcEhZcwAADsMAAA7DAcdvqGQAAApdSURBVHhe5ZwJVFTXGcfvW2YfVmEE3FBCi0GtsdW4a4tmEYtJbLUmcU3TpNgTezxaNTWaGKNGbE+qia02ai1pgomaVKMYjQY02lZtVFxotKAoyMiAMDrM8tZ+d+YOBZmBWUBm5HfO88373zfOzP9+97v3vnd5FLpPSJKUCbvusCVxsqO3IDj60BSTyNLKeIZm1ILIV/OyvZpGTJma1V+B8ypguwnbSZqmS2Df7rSbGfDjVRRFZTkk+08Ymfkxyyg0Vv6uaHaYUK3DyJjtJlTnqHJuDtGKolUGFAVbtCoeRasNKEaVIEQquzA0zVD1vLlYy0Z+AP/tHjDmgusT2p42NwNMmCHI/GQGMZnwQ5jLt08LZ6sOs0WmQlRjw5XtH/3iRqEBhrFoQPwYMCse2QRLiZrRfQhFH4Exxa6z2oY2M0OW5aeg5tdqFRGpl6qP82eqjiiKTAXojqOanBE8340dAqaMRY8YMrgYTYISPjMH5DfBlLuuM4IjaDMgEn4AYbxOr4we882tQ9znJRuVlZZSUtp+jO05DWX2eVlUMRob5J2lYMgfSFHABGwG1EqCQ7CtVLGaF0rrzgmfl/yRLa75Bym9P6gYLZqQ8gv0WPJsZBesl8GYV8GUXaTYbwIyA6JhmCjzOy1cXdzekveUJyo+IyUdQ1ddMprQ5yU0JHECrqQ1YMgSUuQXfpsBH/ZTSRLzLtWcEN8vWqhwiDZS0vGM6PYMej59OXII9o/VCs1UIvuMX2ZARMyH7vJ3hTd2oLziVUQNLdLjRqDZ/dfINEX9W83osyBKKklRq/hshpW3vKdhddl/v7IeHbi6haihSZL+IfTCgLVinDrJqGDUT4Mhp0hRi/hkhp23boZE+eJfLixF/7q5l6ihjZaNQHMGrEFpsUPrYaQ7GAxpdUzSqhnQNOZC03h3a9FidMqYT9TwYeGQvwpJEanFENUDiOQVmuw9Akb8CBuxv3RTWBqB2X5hKSuIXD+7aPsbkbzi1QwwIpGT7Hlnbh3m9/53I1HDjyrrdZR7cRmlotXPwm/6DZE94t0MWci9bbsZC84qiBS24HnRp5ffQRDlb4MhWURuhsecAW9YJsnS6zknp1Nldy4S1Tsbx58lrzqW7EMDySvPzOi3Ag1JyKxhaDYJjOGI3EAzM8CIWEkWb+4r3aTKL91MVM+Eign34s0UnSIavTXqgKxk1Mugd1lJ5AaamQHjiXcg4cxdcmw8K0o8UZvjNqK12rif+PKdMlNeRk/0/rmdpRU4OmqJ7KRJzoCo6AFd0Lwvrm1p0Yhw5uDVbcjGW1QwrWiWTJuYwYn2127bjNzhslyiPHjwkgMdKttGyUheBJXfjchOGswAp9LwKPPA1T8rieQ3OEwb5xF/j1vDfX7jLRAOXduOau23ZHjZJDoaR8asWrvx7rHyneTwwebgta00REc2BEHD0KEhgXKCo/ho+Y60nd+uI0rLuGsl3BKomxh1V7Rq9EHcIiZBz7IHa87IgLaTqmCUaRerj+PDTgE0E3TVXIQsXO0UIjU0kwkOwcbf78t2Hc3F6q+RglE9QQ5dzYQTuS+LTAWj3j+3wK/kGWgCa298bbq9otLR4kc/xE1lCL7mQcMLvYJWZJw3Ffrdi4RSvsDg7+PPdyozX0S3bZUSvHwSH1OQLybDSGznwoKxuP1grVMxre9v0bCkSWeUrHoQzhlJNsFi64xGYPAUH8D3gJ2R8Va1rXzusq8nRmHBH0IxZ/jbdAcnPIlm9V8lMTTD4MhIvG2vDHjUGWr4W0FmrhrRFE1DUBhwZOSfNuaP3Hp+iZ6U+0S4D7rcJOh6o+UjPsM9ykAcGQkwAGFdRZ0PvESCkOhsJnUOE560BA2umcZh6u+xL7jfE8h7PQGdB56tS9CjJmAz4u9wNbivDXna4sd7wsrfEaCZOHNGxa5v18Ucvv6BhpT5hPuLhXvOwKzPOCWztGImDeFRGakyeLww3BnQKaJgfqIEG6hKPByvjNMmWUlZpyNKFefcgw9GnDOMeHGZv4RS8wiGSGIGUIlzxgroTX756tHxDaqvtFdCCwZ/K+nRxIloevoKgWVYBTYjG7qWnF8fGaol5Z2K8cmz8O2DKjWr7YqbyXUVq9HGqhNdpZ2MJH0K/Cs7F91SkDgYiI76vP+sUh0r/wRrfhMKzSXQHJYztlCEHmUJTdM5zi4VzNh9qebE4+9+k+1XUwnFnIHx1ZjUmO+j+YO34p6kP5hxwW3Gi5Is/mnekaG0r3fSHoRB11Op89CYHlPKNYqIHvgY5wxMPkOzNF4c1pnoFzdKdIj2L8ihywwIkXIIlX8OjM9ok2XH4YBB2wt1i0hlYNCVR6Qmd9Ty8YL1YMBh2jiP+HvcGu7zG2+BMqjrOCRIfD0Mw78k0v/NAHGzhtVr8NLjUKWt8pOa1aHHkudIDMX+nkhOmkzQIJGudIjWhYsKM5RcKyt/3bUSjgk066FfoYxe021KRm2AILAQuUkzwbwNJzhCOTqCBc9F4PfJnMytbWwEpokZkEjvUoheDSdLEcpYoj5Y4IqGXFGrZyPfIFIDza5jOEeksnTjSFlu4q7LTZpUM4JJYO2Jt2YSr+2OVozch3/jK1DxG4jcwL3NBCdSkULUmnHJM6EfHknU8KGlfDE1bQkPOfG6JyMwXq9wQTLNtXB1P1t78jm2OoC/LQs1nvnOfJihzsRRMRzM8LjcoFlkuIEImQ3T2mKY6xMlfBne7Wm3EXO8GYFpyQyBpZXPpUQ/Ysc3Z8OVPtHfQ9PTX0c2oX4DGLGNyB7xagYG3nyeoZkZo3tMQT/s+SxRw4dYTSKakf6mVM+Zj2oV+leI7JUWzcBAhHwC4bV8Stoi9HjvOUQNfRL1KSh74AYxWmUw6pRRk4ncIl4T6L1AQl0AxuQU3MhDO4pXEzU0ebjLcDS7/2oZovqMmtHjBWzlpKhFfDYDA4ZMhZHIR0WmQmrr+cX4thwpCR1wssQ5AprGHr0qehKRfcIvMzBgyAhe4nYbLaVdtpxfxFRZy0hJx5OZ8hKamJKNk+V6yBHziOwzfpuBAUN6SbL4MUXRg/eXbqL2l26Gbqvjbtf27TIM//WzkBIzkPU2uvSFgMxwAx+8WJSEN8ycSbm/ZDM6XrGblNwfEnR9nH/xjFff2Pj6wzAuwhd2ffpLRU8EZQYGoqQr7F6D5Dq3tO4s2gdRcqmdF9fimee4XtOd9zzq+TulWjZiAZjwKSkOmKDNcAOmDILdMjBlEuQT8azpK6aoqsC5Crct0CuiyaMjXJsg82a7aF0VqYxZS04JmjYzww2YMhp2WTAhmqZmdUnVtnJ0DkzBj4+ouHsZatLsOrEVWFqBekY+jHpEpDlNwN0lNEtk4esKwJhcMB1yVtPrEcHS5mY0BowZDLssm2B5XquISMYaJ9jlOq6KMuOnqpCnq7ierBLverKK2oCilPFypKqL87tBTuLAwK8ilLHb4RA/WaUe6+1Bu5rRGDCmL+ycz9yBrZuFq02D4W13Ba0yUBTSQ+9kdAg2k4rVXVEzWvwADvy8nQqo/dOwifC6nUHofy2Bd0ePUISmAAAAAElFTkSuQmCC;fontColor=#68B92E;fontStyle=1;fontSize=14;" parent="1" vertex="1">
          <mxGeometry x="793.88" y="708" width="67" height="69" as="geometry" />
        </mxCell>
        <mxCell id="fBA-snle_CtwRjqkzqtg-13" value="&lt;font style=&quot;font-size: 15px;&quot;&gt;数据入库&lt;/font&gt;" style="ellipse;whiteSpace=wrap;html=1;aspect=fixed;shadow=0;dashed=0;labelBackgroundColor=none;sketch=0;fontFamily=Helvetica;fontSize=14;fontColor=#FFFFFF;strokeColor=#FFFFFF;fillColor=#68B92E;gradientColor=none;" parent="1" vertex="1">
          <mxGeometry x="670" y="455" width="66" height="66" as="geometry" />
        </mxCell>
        <mxCell id="fBA-snle_CtwRjqkzqtg-15" value="" style="endArrow=classic;html=1;rounded=0;exitX=0.5;exitY=0;exitDx=0;exitDy=0;entryX=0.75;entryY=1;entryDx=0;entryDy=0;strokeColor=#68B92E;" parent="1" source="fBA-snle_CtwRjqkzqtg-10" target="fBA-snle_CtwRjqkzqtg-26" edge="1">
          <mxGeometry width="50" height="50" relative="1" as="geometry">
            <mxPoint x="552" y="522" as="sourcePoint" />
            <mxPoint x="602" y="472" as="targetPoint" />
          </mxGeometry>
        </mxCell>
        <mxCell id="fBA-snle_CtwRjqkzqtg-16" value="" style="endArrow=classic;html=1;rounded=0;exitX=0.5;exitY=0;exitDx=0;exitDy=0;strokeColor=#68B92E;entryX=0.75;entryY=1;entryDx=0;entryDy=0;" parent="1" source="fBA-snle_CtwRjqkzqtg-11" target="fBA-snle_CtwRjqkzqtg-26" edge="1">
          <mxGeometry width="50" height="50" relative="1" as="geometry">
            <mxPoint x="552" y="522" as="sourcePoint" />
            <mxPoint x="697" y="625" as="targetPoint" />
          </mxGeometry>
        </mxCell>
        <mxCell id="fBA-snle_CtwRjqkzqtg-17" value="" style="endArrow=classic;html=1;rounded=0;exitX=0.5;exitY=0;exitDx=0;exitDy=0;entryX=0.75;entryY=1;entryDx=0;entryDy=0;strokeColor=#68B92E;" parent="1" source="fBA-snle_CtwRjqkzqtg-12" target="fBA-snle_CtwRjqkzqtg-26" edge="1">
          <mxGeometry width="50" height="50" relative="1" as="geometry">
            <mxPoint x="552" y="522" as="sourcePoint" />
            <mxPoint x="622" y="602" as="targetPoint" />
          </mxGeometry>
        </mxCell>
        <mxCell id="fBA-snle_CtwRjqkzqtg-19" value="&lt;font style=&quot;font-size: 15px;&quot;&gt;数据归并&lt;/font&gt;" style="ellipse;whiteSpace=wrap;html=1;aspect=fixed;shadow=0;dashed=0;labelBackgroundColor=none;sketch=0;fontFamily=Helvetica;fontSize=14;fontColor=#FFFFFF;strokeColor=#FFFFFF;fillColor=#68B92E;gradientColor=none;" parent="1" vertex="1">
          <mxGeometry x="719.01" y="344.51" width="63.75" height="63.75" as="geometry" />
        </mxCell>
        <mxCell id="fBA-snle_CtwRjqkzqtg-18" value="DB0" style="shape=image;verticalLabelPosition=bottom;labelBackgroundColor=default;verticalAlign=top;aspect=fixed;imageAspect=0;image=data:image/png,iVBORw0KGgoAAAANSUhEUgAAAEMAAABDCAYAAADHyrhzAAAAAXNSR0IArs4c6QAAAARnQU1BAACxjwv8YQUAAAAJcEhZcwAADsMAAA7DAcdvqGQAAAoYSURBVHhe3ZwLkFdVHcfP/uURsQsSfx67JLgUisAi4mTRCvmIYIxmnGwGpgahcpAhKzPEdBpqHF0TRB0NwqSaEMc1aKoBS0QYIXup7CooLIjaLoUrLA+JwAV3/32/v3vu3fu///u+9/9n6eMcz+PePY/v/5xzzz3ndylTJSCXyw2A+wKClXBVNr+qrKysEtd6IPwu3AEXf1smk9kPv+gUTQw0cCTcFxGcgQZTiNggn7/CewZuA4TZIYndHVQ629nZuRjuHwgXBeS9C24JgqN1samRWs9ABe+Cdxd6QV8jJZ99RxtUy392q/fbDxW4js4O1b/3IHHna5+usnykGpu9UudQCAR5COXVwbXppEQkFgMi3AyPIgw3UgzwG6qdbX9Wrx/apnbCHWs/qK9E4yM9ylXNoMmqJjtFjRs0RfVB3A4EOQmPgtDljNR4xBYDItwAjyJMNFIMWo7vUnuPvqLW71uuTnd8oFPTgz3lmuFfVWOytTrFAKK0wLsPc8pKIyU6scSAEHdAhJ/oqHD41AH17Dur1Iv/+q1OKS4TBl+jpo+8SY3oN1anGECURyHId3Q0EpHFgBCPQYh5Oqo++PC/EOEXaiPc2aB22JdFlGyfYTpFBPkjvNkQ5YiREo7QYkAErg2egBDXGilKvY454TdN96tDJ0uyDPDla2MWqys/zpFrAEGa4FGQV4yUYEKJASE+C28NhKg2UpR6oeUp9XRT3kg560yr/oa6ftR3dUwEOQOPgjxtpPgTKIbuEX+xC7F2z1K1pXmNjnUvJg6ZqubW3Kt6ZnrrFBGlFoJw4eZLGDGeN4dGDv+tbLxV7Tj0glzrrgzvd4maO+5erFM+IXGI8TbaUAvXKgkeZLTvip4srTniXBCCtBzfrVbtuEMmd4I28NVgtUR88OwZECLv8ZlkaKyY+qoOhWfBpgk6FJ9LB1+t5k94WMekhzyG4TJfRwtwFQNC3AAh1ulo5MkyTuP9SCLMtSNmq69cvFDHRJBFEGSpjubhJcZ2iCErSz4+lzfcIulBuImQpCFp5TfrkjvV5y6YJWGIcQLehRDksCTYKBADQtwMIWRJyzFX9/eZgesIZ6XT6OJO7GXEyf/Oz9TLxEogyIMQ4/sSseEmRjPEkJeu37/5SODKMmklo2KWF7Wsy4Z8Xs27dJmOiSAXQ5C9OirkPU0ghPX2yXeNKEvsUghBzHKcvTGIxveeV7sP/03H0AvKyrjlkIclBpTKwrNu4EtXEHF/paTEFeTZt/PaNAc//iQdFuxiLIBasjHD1/BSvX2WEm4tvNz6Jx0T8t5u7cOE+5XC3iOh323OORpan9MhwWozETHQXarRK65gmDtU699azuD/Ja8e3KLePfGWhNHmCrT9OokAs2fM0L5s1UXdoYo6dpOStLydbdt0SLDaXiAG9yyjEHcyiwPLSKMc7snasIZKBhPnAHQX61zDcWMo7IIUSxR7vkmfXtyp5648QduHY6hwv0aVITATCfWM8KZlL3+dwVCwgs6KuYkRp/JB+ZjX4wpj3xlDh7gbC7AfUYxbIcZDTNzS8qRa27REbgiDmxgmbo2Ji1sZScWgEBSEQIzHIcY8irEEYtzOxN+9+bB67p1fyQ1h8BPDCz+RouSVVIyaQVPUgsselTDEeAZizOAEygNgwRxHUYjaA1h5L1dKHG0VDSgG9ziFOGKcqzjaKhok7hkkau9IShrlvd/eJgtMgmliKIbKeRkEUukZpRIkzXLs7YUYlVxn0FBEON3RrkPhsY/1YgrCvM3805pfOnIdOiT05DChhYxwfu/BOhQN+wRoVjotYZx5pTnR0uzBxgE+WrdiqExhbNlLc9W+Y41yJQyspFvlgoRI62+SUN5rgFp6lXHsgdFxGI/WLMWohxgzmbhqxyK1vXWj3BAGLzGcBDXUjbQb72RYxUXqh5PWShhi7IQY4ynGgxDje0xct2ep2hzhbMRsZLErbuInatQ6jM3WqlsmrpAwxNgIMaZzzqBFndA/5pxRbCiCXQg23Nn4qL3PMV/IvJk3gVbps8moRK1IFPxEMONmmlM0PyrLP6lDgnQIimG9s9NEiDZUcSiGIGaeThHcCLrupCY7WYeErfwfhkpmP8aMtYdOY7IoxP1lkuBVjr0eflxQMVoN6XuhhNH2o9BANkbZM8gG7YtVXRzcRAmqlB/m35p5pgnfWG1YbZcTNTxRxuOJ8hrDpz48oW7bkm9J5wUr7FXZJEIwTz8xgoTyqxdZ9Ok1qrp/jYTRM2ahZ4hlj3W8CEF2QRA5jPxpw7fUG20vSrofQYW6ESSSmZ+zwWH/jjj/1s7APlXqnsl5ZycVaDcPo61hQqzuQjvLsARV0gkr6OeKDU0UTNArNphCEEsMJP5SB8XglHaW3Qk3wdzSTNzSuHS4Ov+H/rn2BbsYTVBK9kIJbSuDMAuM2juKiV9dpld3tQlt5Vbfeh0V7MOEgtThJtpii+UtDU6DsAuSpihpCz1qwOXqU5XW4Rmp076FUwxa51s3hekdxN4l0xbFDZZnL9PELNftmr0t+MFXo1cUmEIWGKvgxjK4f0IYsdPgafyTu+6Wa2HwEsKtgm44G2TPzy8Pv/umVX9TXT+q68Ad7RsNMfboqEWBGASP2fkQ42c6GvkIwcRLmDDYG+TMx+uam1iXD52mbhrfdRYEIVxNmIirGASCPAJBvq2j6vHXFqqG9zbpWHy8BPL71U38xHX7+xH9xqiFV/xa9cj0kjiE4GddX5KIC55iEAjC57AczJ7pbFcPvDRHDE7PBT7as5+6HUIM7TtS4hCCi0paCR+TBBfyJlAXbkQmtM4XW2yaIFeVj5IL3RkK8ePaP9iFaIcIN/oJQXzFQJfi9xqzkRmt88UWm2rT8ra7wqHBOlb0+phOkafkbLjtOuqJ7zAxwXCxTupN1u15QG1ufkLHugecLOeOu8eaIwh+yB/gR71fR30JJQaBILRh4Mc3Rt8DW/fXq/rd9+nY2cXl8cmhwR5h7PqGILQYBAXwGG41Cpiqk2RCpZkk7SzPBlxZckE1ZqDYmwioIydLzhGBQ8NOJDFM0EtWoiB+wmlBg1PaWdK8sBTwpYvvGo4lNoXgE5A9wneydCOWGASC0KZjMQrN2zSlnWVj6ybVeHCzTkkX7kfwNdzx9ilACM8FVRhii0EgyEB4NLG+zUjpguaFtKqjjRjNo5LAPUtu1fEjX3OHyg6HLrw6CFGwxI5CIjFMIMpFEISm1nOMlHx42k1Rmo+/IeEul//VNo/8zE+/+Rk4t/O5i21u3jqBCPzHAihC4PdnJQeiTIJ7Cu44KhpIZ2dH7uip1lzbyX/nznSc1qnBIP/1cJ7L6m4HKnsd3Aq4Zt2G2CCPI3Cr4WYiGu9gJwSpDJMg0Ag+96bB0TCGlkLiY2gNhW+BhvLrIJ5u2f8xka0YBnkG38WiJGJ4gcafB0dhesIdQKOjW8ukhlL/A5uooe5chI1qAAAAAElFTkSuQmCC;fontColor=#68B92E;fontSize=14;fontStyle=1" parent="1" vertex="1">
          <mxGeometry x="587" y="342.88" width="67" height="67" as="geometry" />
        </mxCell>
        <mxCell id="fBA-snle_CtwRjqkzqtg-22" value="DB1" style="shape=image;verticalLabelPosition=bottom;labelBackgroundColor=default;verticalAlign=top;aspect=fixed;imageAspect=0;image=data:image/png,iVBORw0KGgoAAAANSUhEUgAAAEMAAABDCAYAAADHyrhzAAAAAXNSR0IArs4c6QAAAARnQU1BAACxjwv8YQUAAAAJcEhZcwAADsMAAA7DAcdvqGQAAAoYSURBVHhe3ZwLkFdVHcfP/uURsQsSfx67JLgUisAi4mTRCvmIYIxmnGwGpgahcpAhKzPEdBpqHF0TRB0NwqSaEMc1aKoBS0QYIXup7CooLIjaLoUrLA+JwAV3/32/v3vu3fu///u+9/9n6eMcz+PePY/v/5xzzz3ndylTJSCXyw2A+wKClXBVNr+qrKysEtd6IPwu3AEXf1smk9kPv+gUTQw0cCTcFxGcgQZTiNggn7/CewZuA4TZIYndHVQ629nZuRjuHwgXBeS9C24JgqN1samRWs9ABe+Cdxd6QV8jJZ99RxtUy392q/fbDxW4js4O1b/3IHHna5+usnykGpu9UudQCAR5COXVwbXppEQkFgMi3AyPIgw3UgzwG6qdbX9Wrx/apnbCHWs/qK9E4yM9ylXNoMmqJjtFjRs0RfVB3A4EOQmPgtDljNR4xBYDItwAjyJMNFIMWo7vUnuPvqLW71uuTnd8oFPTgz3lmuFfVWOytTrFAKK0wLsPc8pKIyU6scSAEHdAhJ/oqHD41AH17Dur1Iv/+q1OKS4TBl+jpo+8SY3oN1anGECURyHId3Q0EpHFgBCPQYh5Oqo++PC/EOEXaiPc2aB22JdFlGyfYTpFBPkjvNkQ5YiREo7QYkAErg2egBDXGilKvY454TdN96tDJ0uyDPDla2MWqys/zpFrAEGa4FGQV4yUYEKJASE+C28NhKg2UpR6oeUp9XRT3kg560yr/oa6ftR3dUwEOQOPgjxtpPgTKIbuEX+xC7F2z1K1pXmNjnUvJg6ZqubW3Kt6ZnrrFBGlFoJw4eZLGDGeN4dGDv+tbLxV7Tj0glzrrgzvd4maO+5erFM+IXGI8TbaUAvXKgkeZLTvip4srTniXBCCtBzfrVbtuEMmd4I28NVgtUR88OwZECLv8ZlkaKyY+qoOhWfBpgk6FJ9LB1+t5k94WMekhzyG4TJfRwtwFQNC3AAh1ulo5MkyTuP9SCLMtSNmq69cvFDHRJBFEGSpjubhJcZ2iCErSz4+lzfcIulBuImQpCFp5TfrkjvV5y6YJWGIcQLehRDksCTYKBADQtwMIWRJyzFX9/eZgesIZ6XT6OJO7GXEyf/Oz9TLxEogyIMQ4/sSseEmRjPEkJeu37/5SODKMmklo2KWF7Wsy4Z8Xs27dJmOiSAXQ5C9OirkPU0ghPX2yXeNKEvsUghBzHKcvTGIxveeV7sP/03H0AvKyrjlkIclBpTKwrNu4EtXEHF/paTEFeTZt/PaNAc//iQdFuxiLIBasjHD1/BSvX2WEm4tvNz6Jx0T8t5u7cOE+5XC3iOh323OORpan9MhwWozETHQXarRK65gmDtU699azuD/Ja8e3KLePfGWhNHmCrT9OokAs2fM0L5s1UXdoYo6dpOStLydbdt0SLDaXiAG9yyjEHcyiwPLSKMc7snasIZKBhPnAHQX61zDcWMo7IIUSxR7vkmfXtyp5648QduHY6hwv0aVITATCfWM8KZlL3+dwVCwgs6KuYkRp/JB+ZjX4wpj3xlDh7gbC7AfUYxbIcZDTNzS8qRa27REbgiDmxgmbo2Ji1sZScWgEBSEQIzHIcY8irEEYtzOxN+9+bB67p1fyQ1h8BPDCz+RouSVVIyaQVPUgsselTDEeAZizOAEygNgwRxHUYjaA1h5L1dKHG0VDSgG9ziFOGKcqzjaKhok7hkkau9IShrlvd/eJgtMgmliKIbKeRkEUukZpRIkzXLs7YUYlVxn0FBEON3RrkPhsY/1YgrCvM3805pfOnIdOiT05DChhYxwfu/BOhQN+wRoVjotYZx5pTnR0uzBxgE+WrdiqExhbNlLc9W+Y41yJQyspFvlgoRI62+SUN5rgFp6lXHsgdFxGI/WLMWohxgzmbhqxyK1vXWj3BAGLzGcBDXUjbQb72RYxUXqh5PWShhi7IQY4ynGgxDje0xct2ep2hzhbMRsZLErbuInatQ6jM3WqlsmrpAwxNgIMaZzzqBFndA/5pxRbCiCXQg23Nn4qL3PMV/IvJk3gVbps8moRK1IFPxEMONmmlM0PyrLP6lDgnQIimG9s9NEiDZUcSiGIGaeThHcCLrupCY7WYeErfwfhkpmP8aMtYdOY7IoxP1lkuBVjr0eflxQMVoN6XuhhNH2o9BANkbZM8gG7YtVXRzcRAmqlB/m35p5pgnfWG1YbZcTNTxRxuOJ8hrDpz48oW7bkm9J5wUr7FXZJEIwTz8xgoTyqxdZ9Ok1qrp/jYTRM2ahZ4hlj3W8CEF2QRA5jPxpw7fUG20vSrofQYW6ESSSmZ+zwWH/jjj/1s7APlXqnsl5ZycVaDcPo61hQqzuQjvLsARV0gkr6OeKDU0UTNArNphCEEsMJP5SB8XglHaW3Qk3wdzSTNzSuHS4Ov+H/rn2BbsYTVBK9kIJbSuDMAuM2juKiV9dpld3tQlt5Vbfeh0V7MOEgtThJtpii+UtDU6DsAuSpihpCz1qwOXqU5XW4Rmp076FUwxa51s3hekdxN4l0xbFDZZnL9PELNftmr0t+MFXo1cUmEIWGKvgxjK4f0IYsdPgafyTu+6Wa2HwEsKtgm44G2TPzy8Pv/umVX9TXT+q68Ad7RsNMfboqEWBGASP2fkQ42c6GvkIwcRLmDDYG+TMx+uam1iXD52mbhrfdRYEIVxNmIirGASCPAJBvq2j6vHXFqqG9zbpWHy8BPL71U38xHX7+xH9xqiFV/xa9cj0kjiE4GddX5KIC55iEAjC57AczJ7pbFcPvDRHDE7PBT7as5+6HUIM7TtS4hCCi0paCR+TBBfyJlAXbkQmtM4XW2yaIFeVj5IL3RkK8ePaP9iFaIcIN/oJQXzFQJfi9xqzkRmt88UWm2rT8ra7wqHBOlb0+phOkafkbLjtOuqJ7zAxwXCxTupN1u15QG1ufkLHugecLOeOu8eaIwh+yB/gR71fR30JJQaBILRh4Mc3Rt8DW/fXq/rd9+nY2cXl8cmhwR5h7PqGILQYBAXwGG41Cpiqk2RCpZkk7SzPBlxZckE1ZqDYmwioIydLzhGBQ8NOJDFM0EtWoiB+wmlBg1PaWdK8sBTwpYvvGo4lNoXgE5A9wneydCOWGASC0KZjMQrN2zSlnWVj6ybVeHCzTkkX7kfwNdzx9ilACM8FVRhii0EgyEB4NLG+zUjpguaFtKqjjRjNo5LAPUtu1fEjX3OHyg6HLrw6CFGwxI5CIjFMIMpFEISm1nOMlHx42k1Rmo+/IeEul//VNo/8zE+/+Rk4t/O5i21u3jqBCPzHAihC4PdnJQeiTIJ7Cu44KhpIZ2dH7uip1lzbyX/nznSc1qnBIP/1cJ7L6m4HKnsd3Aq4Zt2G2CCPI3Cr4WYiGu9gJwSpDJMg0Ag+96bB0TCGlkLiY2gNhW+BhvLrIJ5u2f8xka0YBnkG38WiJGJ4gcafB0dhesIdQKOjW8ukhlL/A5uooe5chI1qAAAAAElFTkSuQmCC;fontColor=#68B92E;fontSize=14;fontStyle=1" parent="1" vertex="1">
          <mxGeometry x="855.75" y="342.89" width="67" height="67" as="geometry" />
        </mxCell>
        <mxCell id="fBA-snle_CtwRjqkzqtg-23" value="&lt;font style=&quot;font-size: 15px;&quot; color=&quot;#ffffff&quot;&gt;Webapi&lt;/font&gt;" style="ellipse;whiteSpace=wrap;html=1;fillColor=#68B92E;strokeColor=#68B92E;" parent="1" vertex="1">
          <mxGeometry x="460.01" y="185" width="100" height="50" as="geometry" />
        </mxCell>
        <mxCell id="fBA-snle_CtwRjqkzqtg-24" value="&lt;font style=&quot;font-size: 15px;&quot; color=&quot;#ffffff&quot;&gt;Webapi&lt;/font&gt;" style="ellipse;whiteSpace=wrap;html=1;fillColor=#68B92E;strokeColor=#68B92E;" parent="1" vertex="1">
          <mxGeometry x="568.01" y="185" width="100" height="50" as="geometry" />
        </mxCell>
        <mxCell id="fBA-snle_CtwRjqkzqtg-25" value="" style="endArrow=classic;html=1;rounded=0;fontColor=#FFFFFF;exitX=0.5;exitY=0;exitDx=0;exitDy=0;entryX=0.5;entryY=1;entryDx=0;entryDy=0;strokeColor=#68B92E;" parent="1" source="fBA-snle_CtwRjqkzqtg-13" target="fBA-snle_CtwRjqkzqtg-18" edge="1">
          <mxGeometry width="50" height="50" relative="1" as="geometry">
            <mxPoint x="596.25" y="369" as="sourcePoint" />
            <mxPoint x="396.25" y="419" as="targetPoint" />
          </mxGeometry>
        </mxCell>
        <mxCell id="fBA-snle_CtwRjqkzqtg-26" value="&lt;font style=&quot;font-size: 15px;&quot;&gt;Nginx Ingress Api gateway&lt;/font&gt;" style="rounded=1;whiteSpace=wrap;html=1;fontColor=#FFFFFF;strokeColor=#68B92E;fillColor=#68B92E;imageAlign=left;flipH=1;flipV=0;" parent="1" vertex="1">
          <mxGeometry x="304.63" y="582.5" width="532.75" height="40" as="geometry" />
        </mxCell>
        <mxCell id="fBA-snle_CtwRjqkzqtg-27" value="" style="endArrow=classic;html=1;rounded=0;fontColor=#FFFFFF;exitX=0.75;exitY=0;exitDx=0;exitDy=0;entryX=0.5;entryY=1;entryDx=0;entryDy=0;strokeColor=#68B92E;" parent="1" source="fBA-snle_CtwRjqkzqtg-26" target="fBA-snle_CtwRjqkzqtg-13" edge="1">
          <mxGeometry width="50" height="50" relative="1" as="geometry">
            <mxPoint x="552" y="495" as="sourcePoint" />
            <mxPoint x="602" y="445" as="targetPoint" />
          </mxGeometry>
        </mxCell>
        <mxCell id="fBA-snle_CtwRjqkzqtg-30" value="" style="endArrow=classic;html=1;rounded=0;fontColor=#FFFFFF;exitX=0.75;exitY=1;exitDx=0;exitDy=0;entryX=0.5;entryY=0;entryDx=0;entryDy=0;strokeColor=#68B92E;" parent="1" source="fBA-snle_CtwRjqkzqtg-28" target="fBA-snle_CtwRjqkzqtg-22" edge="1">
          <mxGeometry width="50" height="50" relative="1" as="geometry">
            <mxPoint x="552" y="395" as="sourcePoint" />
            <mxPoint x="602" y="345" as="targetPoint" />
          </mxGeometry>
        </mxCell>
        <mxCell id="fBA-snle_CtwRjqkzqtg-32" value="K8s" style="shape=image;verticalLabelPosition=bottom;labelBackgroundColor=default;verticalAlign=top;aspect=fixed;imageAspect=0;image=data:image/png,iVBORw0KGgoAAAANSUhEUgAAAMgAAADICAYAAACtWK6eAAAAAXNSR0IArs4c6QAAAARnQU1BAACxjwv8YQUAAAAJcEhZcwAADsMAAA7DAcdvqGQAABxGSURBVHhe7Z1PlhU3lsZDkRjwDK+g8LgaG1bQyaTBI+wVgM/pU3iGWYHNCgwz49PngFdge2TTE6dX4LSze0zWCkyNDJgM1f0kBfkyXujqTygiFPH0O8fFi1eZ+eKF9En36l5dVYVCoVAoFAqFQqFQKBQKhUKhUCgUCoVCoVAoFAqFQqFQKBQKhUKhULj984eX7v744WVzWcgAYf4tzIgSRS3vVVLeEUJcolZ5Kk/Eg8cf/XZsfqQwE0UgM3L3x7/vV/XerbfC6CCr6vuqEfeLUOajCGQGXMLoAqFI2Xz7zc3/+968VZiIIpAJgTBEXX9Bj33fvBWIPJBN9e3jj46emjcKI1MEMgFqxhD1VzRbXDVvDUJKeUjTyqMilPEpAhmR1MLoUoQyPkUgicFS7cWXb66OKYwuRSjjUQSSCAjjwquTfVGJL2KEQZ38RSXEU/r3n7UQX5m3A5HH5KM8KEJJRxHIQLQwmjv0IG9HC4NG/6qqn24u5/7jpyufxwuF/m5VPXx84/f75rIQSRFIJNqUaj4XdXWbHmNw9LsVxsuL9cNvr//2wry9BYRCjYRZybkc3EcRyjCKQAJphUFP7l5Mp4UwqNM+eHWhfsoJo4ueUap7MWIEEErVCPJTStAxhCIQT5QwXssvqId7Bfe6xAqjSxHKtBSBOBgqDOqSxw2ZUkOF0eXuj1fukHmHoGMRyogUgVjYSiAMhGaMQ+qE36YWRpd//PQfH2tnPk4o1ANKYiRDEUiH0DypbeQBzRg/jC2MLkYoML2i0lhIzCUxsociEEMaYchHcycUqnyvvb3b1OPvmLeCgFBKYuQpOy8Q1aEGJhC+qer7/3Pjt0PzRhb897MPr54TMBHjhILvVRIjd1ggw/Ok8hRGl6FCgS9Fv7uzaSw7J5AhwsBSrRDV4RKE0aUIJY6dEIgO7sUnEC5ZGF2wOif2sGxdhOLDqgUCYQxNIBS1+P6NFI+WLowubUYAfT/yv2LYjcTIVQpECyN9AuFaKYmRdlYlkNNRcVgC4a4Io0sRyjarEEgrDPo2kyYQrpWS73XKogWihJFBAuFaKUJZqECGCoOabpQEwrWyy0JZlECWkkAYQrugUNfiQ9nIq0JUl2QlDqtG/ubaTDU1u5gYuQiBpMmTmj6B0IVJc3li63Bm0eB+bkupEErs0jmgQWoxiZFZCySNMOZPIOwjZMWIZpZPc4w3mPa5R53oY/NWEFooJ2R6/f+BeSs7shSIGVkHViBsaCrP88ErU1E0v4aI/k0lruUarFxzYmRWAlEj0g4kEH72vx88Ce9M8vjrG0fvm4ssWWO+VxYC2RVhtNz96cofMSajbMT7S7Db1ySU2QSig3u7l0CoOk8lfzWXQTSy+WRJG5nWkBg5i0CMDf5dtDAWnECol0rr78xlEOSsIznwS3O5GNq4FXW2z81bgSAxsr4+x+xZm38nRYqTq6HigDDQQSpZX/v6v37/dIniSMDiAm0AS+vI0fr6xu+ikTIiV0tclqKJWikbyiwCEaL+T/PSyaYwMHouMRq7yasLe9Erayd1vfhB4ZubRw9jhEIDqnefSck8Aqmkc/aAMPAQX16oyTFdvjBaVKBSVBE2tTxY06x5VijS3bZSRi75D2NyHwT26Luv5R/mcgs1Y6w8gVA5r7V8bi6d4JmQA/JJzgG1ofjke82xijf5DKJWrixQRzjEjIHRZa3iAGhk2ZxcN5dOMGCsWRxAzyhH76MPmLe2mMMPmVwgUtRWgYhaHK5ZGJugwyM6Tk/EOiJqMxNLu0cPzVvrR1Y/mFdbIKHTvJyMyQXCOVvyRP5iXu4E8Cmwr9tcbiOrLPPIxkQKZgZp5PpnEN5Br1dtRhTccKt8NLhegg9rLidhUoEgimxzwmBOrGWlqhCPNrHtZifnw47BpAKpZWNfqhOizB4FhawEY1bWky73TisQzslq5G/mVWHHkbKx+6ITO+rT+iBMsIdzzgq7BZttMHHAcDKBaOfKHgQakoJRWBecHwJHXSW7TsRkAkEJUPNyCwSHdiX+UfCE8UmnDBhOJhAhmezd4qAXOsgT+U/zcospExen80EY54p1ygo7yUld21eyJvRDJklWVBtmXjXPYT+at84w91ZSxGdqeUJ2rbgsZHM4Zd6TPq1WPDGXZ5hygxSewV5DpouobqE2F2Z1ZDbMtZvPmdQ6UZ+ZZAZ553V12SoO8j/mEgca4e6zD77CFljs8kMZHlHv/fzZsw8kskvNj60efNc92fyMoxConXQwV1ZKuJ89u/Lz1NFrYBx1ZqBiYmoJmUQgXIAQCYrm5aSYWe1n2zZQiEVVH1k5bbVE2wBGLbR/8bWc5TmoCpN2JlnJmsTEolH6O/qg3pUHMiNmKYqGmcMmjk2Qlp7S5IIwMaPCpFMLF8qk6V/AQPqNWsDQQVSaZZvj1PfCmb6bzFEwgt+/P00ZpEkEQtP0czVt9zCX/+FbegfV/x7f+P0TcxmF6oj6eIZbdGk1N/1RhdZ+oXlu0DkmQRVWRPUUtQDM1STguXF+yJ/nxXtjhwdGFwjXCCpB8ebRe+ZyMkI6Ruw9GlHA6b1HlwlEYSNeLCHlT+lzZilcxw+uaWf3Pkb3Qfaaxhr/QF0r83JS9IqVH6EdG8KA+aZMF3Jy6fdRwWUkcQCxr5zrWj7H54ZEmYWsvO/L4Q+MBpe4yG2+S8XoAhF7zAapmR56aFoLOp55aeWMMMi3GVcU/ajP9RQKZg8Iy1z6MMtKI5fESs949IDh+KtYXILiTAFC2K1YXjaXTtDxOJEglvHu6+bXuYTRpRWKbak6zLRCO8kXJ5X41lxOysuL8wYMRxUIRlVqLutIJuTeLDOIQtZBjnefSNpZA6YU9z3nQi1Vd+IYoeIAKBoxV8khM5j1OuIYjMZOXBxVIK4ExbkChACf7Sqa0GVTJHD0uTgKBxocq2OIlNO/1oIM+P+wvKpqR+F0poBZ7xSxD7MPS6YRM8dhDkUjOF917MRFat/x4BoEjZ/LkcG4T2XPSonVJg/HTx5IWQU63/qUq0bUZwrAsakmlmek7pcmML979ccI9wE57y9QxfGv89VxDlnW9Iy+tPpLIy8/jyoQGm2tAcJcK5UHxQYcoMO5KtDHCKRF3eugg2tO0eKQn+Z5Gpc9YIj7HjNUMKqJxVUwmdX/YEBH1qbXQFBeFIW2bxxdH8t+x9/F6IkSnurzIslZHGDOSiejCQSjG92+xYGSx3P6Hy6GiASdDbMjOu6U3xGfF+pTgdzFAVyrjpyvO5TRBMIlKM4V/wghSiQ0iuvSqfN0NjWj3Dh6P6Ryeu7ieAuzqY7djDeQ0QSinF4bC6lggg6HZEpzaUWNwvRzGMVzcGqx6uRb+1fQvZuXWTNXpZPxBML4H0upYKJsW51LZaU1UebaWGSjrf2L+zNv9UPO75g2fCrmqnQyikB08MaSYEYNtpQKJsjA5ZZSW3HkaqJgBjwR9XVOJHBy333dRB0JNyV6ZrZXOtE+b3pGEQiOWDMvt8CyZw5miAt98q599hgqDjQo4hncZyAIiU1b+LnYDgCRwC/iZxKxj6VUc5EvjB/CVu0cwCgC4ZymJTjo2rRSp+9aTQ8E1ELFgb+Ljnj3pyu/6m2+aicf3/FldQc/h5/H7yFuYv4fb9SAJBs2tUZU4smU9aZi4Kr/03McJXFxHIHUlT2DdwEVTC68au6wHVdUT0PTLyAMpKYg4OUUhQX8HoKK2CMRKhT4JAg8msst6G9fUkc2Z8wciYvJI+kYJVXKt2X0zf0wfNw/MnPp0VhjOH+er6/5monq7/0lv8JMYN5KBwn1z3fE/RCTFcmL9Iu9nUmZYeqw1Hzbh9sJOkbfSj6DoDy99QvMnKDog9oFyGTmyqbxXsqF36DENoY4AP1dDEYh/gmJ22pqLWEWmTpxMblAXEesmZf5wjnm2J/uucUTnRaldDixpQCdGp/jKxKImzO1ZCM/ztkX4XzYMY5oSy4QajC7/5H5EWvwE+j+7R2tOXlkXrG04rDNpKnB5ygnHitvHrw8L6zHvuFvzXVovw+cDwtxm5fJSC+QBR+xJkR927zcwnf2gM9B4sBedKc49NKrPXcKnwk/w1y68Qz6uWYRpNKbl9kxdeJiUoHoad4eIMzd/2DF7Tl7XHwtTXVCO3gW6PwqiMcd4llVx2+TED2Egg7iG/RzzCJXczWztP9nH1RSH9GWVCBcBRN66lnPHjpQZhW3V71eZaI5dhjib0EYqLWFIJ55m0UlIZJQsEqD3zdvWxD7PkvAqqMxosvazJqw0klSgXAVTHJPUGQzQpmzuzephXDlbR1iL7yvMLpgBn55QaWO8L8vKq9ttXME3lLA+SGp7zutD8JVMMk8QVHUnN3dOGcP7SD3xxdAK46hZiZG/sc3j7Dvg7XFfWaRuSuGxDJl4mKyQKEOsI1TJhJ/W9uW+oRTKaoXQtbkNKfzaVDR3bw8A3Vsry2d3PZiAD+ib+aI3XLret7e9/3TlV/hc5jLM6QKvOn2UyabMmExWKKTx/YHMFU522QzyBhHrOHBooqIiszXe7o8P/2ncph0gbQkqdpsDMHDd1L3wI1cZOvHmlU28DxRFcVcbqFnEQ9HmzUf3wxy1M+2n3hy2n71dxD3oOr5TLuk9J+SCST1EWvotMhdgtOLxjZvnwEjdmgkuQ+uFCmJ2xm7cWQPvHgjhdcKWChkIj2kT7COlD4dhTN9hzi8EKezmJ6s7iB1xDd+s8lUR7Sl80ESHrGGkedc1bgzXQk8fB2xHgIX7fbZ480cbi9E8tmjRc8ilbXioU9HacSe9fvFdjS0n6gbr2J6aD/Eb8ylN6xPm9APSeaDpEwiI7vcXgfJAsw4+p24jqgeaH9j+pQn4vwPbMXldhvG+iAt6Ix2X8RdkZ37fcx+dG9BKf0KKelZ2hcs+kBcCEvf5tIJ/73p7yXyQ5IIBCaOrZYUOq5edfGHc8CmxudBcxmyLoENFQiwDU7o4D6Oum2BYmpCF3L4BYY026CTmFjsbi4hglSsHcs8xBGA9X496n/Zv+tAUwGiwUhrLq1ASOblrODkLfPSD963TdKHkgiEGsJqq9LDD/I/uO26c+AzTUvmnA3b76PjYhWHMyUxOmKU9FiEGGRKCFFlIZDQbbNswJDZtBdCGoGwFRSbURzUqfAZgQlrB+37faza+O4TgUhUpm6nsvwm1MF77xEzw5BYw/T4LIicwgUMUTvZvBzEYIHo0a3fJFI2sOf+iZbcKp74TPvc4kD393WhBqzahJmRWC61zybWv+XZ4fIwaUPL0Wrx94sK5mXM8nGXwQJJfcQa96XnYK9542HD202U1mzATILVLlOowWdW2uLtbPLjlS/NWybJsh8f08lzhhwdPZiGrzqNnbg4WCBjHLGGba3mpTdY8cGKUcx/NDwzqx21e3R1HBPWmlS2peBQ4LdgNsGCxtAKMvwMiSMb+p8Z9x9WkMwf8Ibaj0v7tzPyEW2Dl3m5pTY8rNi6USoNwXcvN3VwpIObq2AwClvL6zfyweOPjt6O2H1gFHblRfnMGvg5+ufY9jz74P62z/OHyYdZzVyewee724DPBLPQXLKExkA24Z69mpU8lrk5Bs0guDmuMYcccaD2PzC73lrwM6jsYS6jYP0ej33OKqKNbF0LPuKgb3KgKorcPLoWUnza9rfROXz8OW4f95AMbMRvfNoPg9vL8yJ6cDPPvteUxLMZuvFrkEC43VvoMEMjmXjIpqR/T0Nj+pf38TNDV2q4h0xfxM/Rk1VUvhU+F98D54i0zws1t0xd3egOivvxei7M9xt6hgvaRplc2Dq8gX7W2nxLUfB7zEongwTCOkGJdhCq3XTUeXBIDKLa6DiIuOK9lGfn2R6yHoX89lZYRWYBAsDuwr7vge8dOptsclIzez0M3Aok3V2SM1xg4sF80u13ch3th1Kouv3izO8usqms8ZChlU4GCYQ6j90JGmEHIRoMHWfoiNMH59CyOyUNOqM3IOAG0+JC7Tx9KnY2Ybc/G+hnrKNr7AILB5b8x2g/NiN5YKWTYQJZcAWTLlwRA9dDDo1toLOHmBboVF5bbTdAfhdyxNhlXFHdMq+2kLKZ5Vz0GDhfCxbAkKXsaIG4A4TDp+cp0Z2VCzptm1l48DGxDfpZpJD84WO6ASwTq70xAatbGn0EdN/ncDXA0H65BWw50Hbc4DGk0km0QBwJiouaPVq4oBONtmeWQofGNiAojPIqnvHsg6/w97DiAtFh8MGspN7HMjp2UwaLQ9N+Tnf3HltggtpvDDN2VNg+x+zXcRAdB8HIaescQ9bP5wSdk99jID+FM47aVzTMogJ89NQ9B5gZcKYJjl2D6MzbWwyJX80FG8saEGeJnkHWcMRaF9dUjVkEhdkQAPMRBzqkeTkyfqk5uGd1/EJdW/eCL828amHvecC2gSiBcHs2lvqAW05EbQ1aaVG4d8rhGagYzc2j9zCbmrdHQQVKz9fXTLzI0+9jFhN84yeZ4fIh+5M83UQJxLFn43iJD7gFK0bdwFYImIE2YxswNbH+n3o2eStCEyjFfavttWxemQt5rAtBLBTGD4k9oi1KIKkrmOTGSWVf8mWxxDaw/o/ZJDbotwmEoVI4ZH2tL8CoS5TGCRJ1gpc8uI1R6STOB0lYwSRHQmcR1Wk9zklHh0ZEWQvFXhmxD/oMnNn+QOVr0azBLaNDkIhWh8wm+Psp9nDPS22//0g/JHgVCys9qhCYxUmFLdwdQZeI63ueIg9kU38aE/fBZ6jzEGV1SeyJv1Ejwje4rPaX6L38x1Uj/4W0kdhnihgIlnnNZS9qtpHNJ6Gb23LD1WYxlU6CBQJnx1bBRCMPkGdjLhYNYhPccijIfUkb8RRqZBzJYBV67t/BF1eKPWb50FkyepnXjtjHjZqLRYMR1WVqYfPSoBKaI0Kzx5fuKL88WLRjbjADgdf+kxCCZxDgUipYYrCpDx085E69bcln5lT37HGyLkwr+CpLdswBrBrXkXdY2IDvZi69iZpB9AfxTiYOpo9de84J+AhucQCaOc02WPPGLCg7/LX02425xJSSDnjeTnFIecglo3JEm1g4ThgfbC63wA2fq/yOA8sVbjtqH/Sdr5qq85ObmBAGPlc5qZ75Yfi5JZvD+M6oAewQB85+/yR2IIgWiPpA+mBzaUFc1mU5l0eoODaB+Ylynr7ZukPZSJz0SoHZBL+zVJGonDgmswHiQO7ZkMxyej7DWMNKT5ch4uiiZllZPUodY8DoiTNZyJR1HhrqQ6yNPhc+bYR4U18wNYTBAgFrctp9HjxGJr170Mc3OQUrYvS7v7y6UD+NmfLfigLHVUtJ/4bNFi4gkqoRj07q6lLOsawxnfIuSQQCuArnAJ0KOUq5PXjl1L5sPje1XKnD852+nbYhdp+BwQbEApGZ9AgyARpjBpw7RgfFoT5C4lD/CpVj/obsaZTTjBOFKnDxyJYObgP3SIJho/ZTA6ec/A70NWs7YdZGyk+KBYhkAkFHcy+Hus+rmBJtHiL1228m2BSHeUv9DWy3TT2ap0Dfb/WgNTPcQd5+kNuVQ5RdDWav5RPqtNZFCHxnlY6TSNTJAoVQq2xqRxwgH6ddLUGH7SPfEgeIyXuaBl1na9MGx+yt0+IDCZx5xgJOuUscQ53yLkkj6bgx+Brm0oLYh51vLmbDHPHmNerbxNGCwQGJiqrzzS4UU2/qxmmdrU1iRILnNHeb4fNd5qyeLdP6uclMrE18yobO6bRrc9C+tXYTlzj6UKaMkPdczyAtSJpsHviaQqHmFvwRcnqjtq0OZUqnvEvSGaQFoykazFz2MmekPbTKRaiQMUrjGaDAHZYaSWSjLEzg72IJHTOCnjH8/QTcI37XXLrRmcaTg8EMAWdWHHDKIyPlLkYRCECknW7dagviC88VaX958VxIh422Z2F6wQdAhUSkWiuxqORH362xZ8FsRv9LM4UWBf4u4kuxK4MhtQNE7AGpA2idcvp0bsUKq6ODy5faGMXEatFLcvK5ubQwT5Kf78GVY5oWqhJHXd+ym2LwJ6ofGlEf/HU+/VbmIFMz0aGYIbiW0SGOUPM3lNFmEJCz0w6b1bzkaU6iilL7gIaVJ/YzHFFzFjMQZogxRkj8Tb27kUeZMBfdtX5T4uOUUyM+GtuPHVUgQH0Bx8oOItfcSUljAIcODW8ue1GOXwbr/2OiloGZ9lHPSDaDK+iHAN+UxMGfk0/3PEX60ugCAbk67bDh+zoHpm6MrGOsiuQI2gcmVNtGynQhYeAZICI95SDh65QPPRPGl1F9kE20vZtnpB33hhwn3NtY9r4Nbs84nPE5kjzxPKacMVrwuT6R8ilTliYTCPBbe1/PnnYfchTIXOSY9DqJidUC1S8l0l6YFq9IOQ0YU4oDTCoQ4Ou0qyTAwk6Qk1PeZXKBAB+nHQlyc+/vLoxPbk55l1kEAnwi7Trvv7BWWqecWnu2SLmL2QSCL/ymWu+e9oIbV/o6QKR8qhWrPmYTCChO++7i5ZRX1cOpnfIuswoEFKd99/B2yjMI1M4uEFCc9t0BfseedNayms0p75KFQEBx2tfP20g5U6Zobqe8SzYC8XXa7z77YNHVGjdBhyH70XpWOZkZt9Y0a6rqMZk75V3ofvOCO620ZY69CamBHe7aRtqSS1WRIXidUzLSttkhZCcQ4LOnfcmdxqe20yZTJ+ilxmswIKdc+6J5kY2JtYlKvyZHzVz2s2in3bdivAYdSxWBWCBLc8q7ZCkQgH0I9OhW57Qrv0NU4Z2dZtSlDQhLdMq7ZCuQtTrt77yuLrOmBkvcUcZzsUSnvEu2AgE+kXY0wFTHDKRgr2mid02iTq95mT3GKWeDgTlEyl1kLRDgE2nH6shSIu1ShJ9ffkpcuaCpgVNObcYfH0FtOlYtq5RkLxCwJqf91YW96JU3IfeyX8UKccpz9Ts2WYRAAJx2OHTmcgvVICL/I9/QKZxi70UepyzKPBZLd8q7LEYg6oG6/BFqmEU47c6j67bxqV81NyZDd9FOeZfFCAQgMLgGpx0zgXfhOmIJziyeufNkrgV8jy6LEghYi9OOlArXrABzRNWmytyZ9XHKSRzfL8Ep75JlqokPOJPcZeumPGloLFQaRiVv44g1ao5942cdk714fFKJB7mbIyoY+EqlkTDL1/L4z/P1taX4HZssViCmYZ4r59wCnGFVPXFB4HstqSPB5+P8DuOULzaPbLECATCjnEdQz3jwy9qBU+70Oxaeeb04H2QTOO1oAHPZyxKc9iXi65QvfVvCogUCVAOsKNK+BNbslHdZtIm1yVqc9txZu1PeZfEzSMtaIu254xMpl02zmEi5i9UIZFWR9kzxiZSTbXV/6duDN1mNQEBx2scDz4yenTN9felOeZdVCQSggeAgmste4LQrR7PgReuUKzPVijxYg1PeZTVOepfitKdh15zyLqubQVqK056GXXPKu6x2BgFekXbszRCizCI9iEqSSSXY+NEaapRxrFogQDmXjoJlhTiUU77yk4BXa2K1+DjthRjW6ZR3Wf0M0uJy2gshrNcp77L6GaTF5bQX/Fi7U95lZwTiE2kvuCFz9cGaIuUudkYgQO9pz7/4Qa7AKf/m5pH3Xvo1sDM+yCYl9T2OlxfPHe6KaVUoFAqFQqFQKBQKhUKhUCgUCoVCoVAoFAqFQqFQKBQKhUKhUCgU5qWq/g0RQaaw+Ff8BgAAAABJRU5ErkJggg==;fontColor=#68B92E;fontStyle=1;fontSize=14;" parent="1" vertex="1">
          <mxGeometry x="894.5" y="120.25" width="65.5" height="65.5" as="geometry" />
        </mxCell>
        <mxCell id="fBA-snle_CtwRjqkzqtg-39" value="" style="endArrow=classic;startArrow=classic;html=1;rounded=0;fontColor=#FFFFFF;exitX=0.5;exitY=0;exitDx=0;exitDy=0;strokeColor=#68B92E;entryX=0.25;entryY=1;entryDx=0;entryDy=0;" parent="1" source="fBA-snle_CtwRjqkzqtg-54" target="fBA-snle_CtwRjqkzqtg-26" edge="1">
          <mxGeometry width="50" height="50" relative="1" as="geometry">
            <mxPoint x="46.999999999995225" y="359.5" as="sourcePoint" />
            <mxPoint x="225.5" y="359.5" as="targetPoint" />
          </mxGeometry>
        </mxCell>
        <mxCell id="fBA-snle_CtwRjqkzqtg-43" value="&lt;b&gt;&lt;font style=&quot;font-size: 13px;&quot;&gt;查询流量、告警、结构化数据&lt;/font&gt;&lt;/b&gt;" style="text;html=1;strokeColor=none;fillColor=none;align=center;verticalAlign=middle;whiteSpace=wrap;rounded=0;dashed=1;labelBackgroundColor=none;fontColor=#68B92E;" parent="1" vertex="1">
          <mxGeometry x="782.76" y="275" width="87.24" height="30" as="geometry" />
        </mxCell>
        <mxCell id="fBA-snle_CtwRjqkzqtg-44" value="&lt;b style=&quot;font-size: 14px;&quot;&gt;Deployment&lt;/b&gt;" style="text;html=1;strokeColor=none;fillColor=none;align=center;verticalAlign=middle;whiteSpace=wrap;rounded=0;labelBackgroundColor=none;fontColor=#68B92E;" parent="1" vertex="1">
          <mxGeometry x="608.01" y="163" width="60" height="30" as="geometry" />
        </mxCell>
        <mxCell id="fBA-snle_CtwRjqkzqtg-46" value="&lt;b&gt;&lt;font style=&quot;font-size: 13px;&quot;&gt;30S、5Min, 1H, 4H, 24H粒度&lt;/font&gt;&lt;/b&gt;" style="text;html=1;strokeColor=none;fillColor=none;align=center;verticalAlign=middle;whiteSpace=wrap;rounded=0;labelBackgroundColor=none;fontColor=#68B92E;" parent="1" vertex="1">
          <mxGeometry x="782.76" y="345" width="75.25" height="30" as="geometry" />
        </mxCell>
        <mxCell id="fBA-snle_CtwRjqkzqtg-47" value="&lt;b&gt;原始数据&lt;/b&gt;" style="text;html=1;strokeColor=none;fillColor=none;align=center;verticalAlign=middle;whiteSpace=wrap;rounded=0;labelBackgroundColor=none;fontSize=14;fontColor=#68B92E;" parent="1" vertex="1">
          <mxGeometry x="587" y="439" width="60" height="30" as="geometry" />
        </mxCell>
        <mxCell id="fBA-snle_CtwRjqkzqtg-48" value="&lt;b&gt;归并后数据、结构化数据&lt;/b&gt;" style="text;html=1;strokeColor=none;fillColor=none;align=center;verticalAlign=middle;whiteSpace=wrap;rounded=0;labelBackgroundColor=none;fontSize=14;fontColor=#68B92E;" parent="1" vertex="1">
          <mxGeometry x="829" y="439" width="93.75" height="30" as="geometry" />
        </mxCell>
        <mxCell id="fBA-snle_CtwRjqkzqtg-54" value="&lt;font&gt;Users&lt;/font&gt;" style="ellipse;whiteSpace=wrap;html=1;aspect=fixed;shadow=0;dashed=0;labelBackgroundColor=none;sketch=0;fontFamily=Helvetica;fontSize=14;fontColor=#FFFFFF;strokeColor=#FFFFFF;fillColor=#68B92E;gradientColor=none;" parent="1" vertex="1">
          <mxGeometry x="405" y="711" width="67" height="67" as="geometry" />
        </mxCell>
        <mxCell id="fBA-snle_CtwRjqkzqtg-56" value="&lt;b&gt;交互&lt;/b&gt;" style="text;html=1;align=center;verticalAlign=middle;resizable=0;points=[];autosize=1;strokeColor=none;fillColor=none;fontSize=14;fontColor=#68B92E;" parent="1" vertex="1">
          <mxGeometry x="387" y="665" width="50" height="30" as="geometry" />
        </mxCell>
        <mxCell id="fBA-snle_CtwRjqkzqtg-57" value="&lt;b&gt;上报XML&lt;/b&gt;" style="text;html=1;align=center;verticalAlign=middle;resizable=0;points=[];autosize=1;strokeColor=none;fillColor=none;fontSize=14;fontColor=#68B92E;" parent="1" vertex="1">
          <mxGeometry x="678" y="665" width="80" height="30" as="geometry" />
        </mxCell>
        <mxCell id="fBA-snle_CtwRjqkzqtg-58" value="" style="endArrow=classic;startArrow=classic;html=1;rounded=0;fontSize=14;fontColor=#68B92E;strokeColor=#68B92E;entryX=0.25;entryY=1;entryDx=0;entryDy=0;exitX=0.25;exitY=0;exitDx=0;exitDy=0;" parent="1" source="fBA-snle_CtwRjqkzqtg-26" target="fBA-snle_CtwRjqkzqtg-28" edge="1">
          <mxGeometry width="50" height="50" relative="1" as="geometry">
            <mxPoint x="437" y="535" as="sourcePoint" />
            <mxPoint x="487" y="485" as="targetPoint" />
          </mxGeometry>
        </mxCell>
        <mxCell id="PFdoZ9W6jrc_HYIIP_A1-2" value="&lt;b&gt;&lt;font style=&quot;font-size: 16px;&quot; color=&quot;#68b92e&quot;&gt;....&lt;/font&gt;&lt;/b&gt;" style="text;html=1;strokeColor=none;fillColor=none;align=center;verticalAlign=middle;whiteSpace=wrap;rounded=0;fontSize=13;" vertex="1" parent="1">
          <mxGeometry x="653.01" y="210" width="60" height="30" as="geometry" />
        </mxCell>
      </root>
    </mxGraphModel>
  </diagram>
</mxfile>
